<?xml version="1.0" encoding="UTF-8" standalone="no"?>
<!DOCTYPE svg PUBLIC "-//W3C//DTD SVG 1.1//EN" "http://www.w3.org/Graphics/SVG/1.1/DTD/svg11.dtd">
<svg version="1.1" xmlns="http://www.w3.org/2000/svg" xmlns:xlink="http://www.w3.org/1999/xlink" preserveAspectRatio="xMidYMid meet" viewBox="0 0 100 100" width="100" height="100"><defs><path d="M35.43 55.37C30.84 53.83 27.32 52.04 24.88 50C22.44 47.96 19.88 45.32 17.21 42.08C19.31 40.94 21.36 39.71 23.34 38.38C25.33 37.05 28.26 34.3 32.14 30.11L31.78 29.45L39.59 22.04L40.12 22.48C41.57 20.83 42.52 20 42.96 20C43.41 20 43.84 20.24 44.25 20.71L50.71 28.8L47.69 31.51C48.13 31.74 48.62 32.08 49.15 32.53C49.95 33.19 54.52 40.91 55.5 42.91C56.47 44.9 60.87 49.79 64.95 53.38C69.03 56.98 76.71 68.6 78.17 70.55C79.63 72.5 82.25 74.06 82.69 76.27C82.99 77.75 82.58 78.82 81.45 79.47C79.71 80.18 77.93 80.18 76.13 79.47C73.42 78.4 73.14 76.49 71.54 72.99C70.48 70.65 68.54 67.71 65.73 64.16C60.26 58.45 56.24 54.5 53.67 52.31C49.81 49.03 41.02 40.25 40.4 39.36C39.99 38.77 39.63 38.44 39.34 38.38C38.38 38.86 37.6 40.77 36.97 44.12C36.35 47.47 35.83 51.22 35.43 55.37Z" id="aqfPFyDEO"></path></defs><g><g><g><g><filter id="shadow12281990" x="1.21" y="4" width="98.57" height="93" filterUnits="userSpaceOnUse" primitiveUnits="userSpaceOnUse"><feFlood></feFlood><feComposite in2="SourceAlpha" operator="in"></feComposite><feGaussianBlur stdDeviation="2"></feGaussianBlur><feOffset dx="1" dy="1" result="afterOffset"></feOffset><feFlood flood-color="#000000" flood-opacity="0.34"></feFlood><feComposite in2="afterOffset" operator="in"></feComposite><feMorphology operator="dilate" radius="2"></feMorphology><feComposite in2="SourceAlpha" operator="out"></feComposite></filter><path d="M35.43 55.37C30.84 53.83 27.32 52.04 24.88 50C22.44 47.96 19.88 45.32 17.21 42.08C19.31 40.94 21.36 39.71 23.34 38.38C25.33 37.05 28.26 34.3 32.14 30.11L31.78 29.45L39.59 22.04L40.12 22.48C41.57 20.83 42.52 20 42.96 20C43.41 20 43.84 20.24 44.25 20.71L50.71 28.8L47.69 31.51C48.13 31.74 48.62 32.08 49.15 32.53C49.95 33.19 54.52 40.91 55.5 42.91C56.47 44.9 60.87 49.79 64.95 53.38C69.03 56.98 76.71 68.6 78.17 70.55C79.63 72.5 82.25 74.06 82.69 76.27C82.99 77.75 82.58 78.82 81.45 79.47C79.71 80.18 77.93 80.18 76.13 79.47C73.42 78.4 73.14 76.49 71.54 72.99C70.48 70.65 68.54 67.71 65.73 64.16C60.26 58.45 56.24 54.5 53.67 52.31C49.81 49.03 41.02 40.25 40.4 39.36C39.99 38.77 39.63 38.44 39.34 38.38C38.38 38.86 37.6 40.77 36.97 44.12C36.35 47.47 35.83 51.22 35.43 55.37Z" id="bq7OFiIyO" fill="white" fill-opacity="1" filter="url(#shadow12281990)"></path></g><use xlink:href="#aqfPFyDEO" opacity="1" fill="#eeeeee" fill-opacity="1"></use></g></g></g></svg>