<?xml version="1.0" encoding="UTF-8" standalone="no"?>
<!DOCTYPE svg PUBLIC "-//W3C//DTD SVG 1.1//EN" "http://www.w3.org/Graphics/SVG/1.1/DTD/svg11.dtd">
<svg version="1.1" xmlns="http://www.w3.org/2000/svg" xmlns:xlink="http://www.w3.org/1999/xlink" preserveAspectRatio="xMidYMid meet" viewBox="0 0 100 100" width="100" height="100"><defs><path d="M70.84 22.19C70.23 22.54 69.78 22.63 69.46 22.44C69.15 22.26 68.1 22.1 66.31 21.97C65.39 22.03 64.84 22.14 64.65 22.31C64.37 22.56 63.34 22.37 62.96 22.09C62.71 21.91 62.4 22.29 62.03 23.25L60.65 23.53C58.9 23.63 57.75 23.7 57.21 23.72C56.67 23.74 55.92 23.58 54.96 23.25C54.61 22.81 54.27 22.54 53.93 22.44C53.6 22.34 53.4 22.37 53.34 22.53C53.07 22.55 52.71 22.48 52.28 22.31C51.84 22.14 51.32 22.19 50.71 22.44L49.68 22.31L48.34 22.44C48 22.38 47.69 22.29 47.4 22.19C47.11 22.09 46.53 22.29 45.65 22.79C45.09 22.83 44.69 22.83 44.46 22.79C44.23 22.76 43.83 23.04 43.24 23.64C41.47 23.79 39.98 23.79 38.78 23.64C37.57 23.48 36.71 23.11 36.22 22.53L34.54 22.44C33.73 22.15 32.94 22.07 32.19 22.19C31.07 22.38 31.26 22.25 28.94 22.44C27.4 22.57 26.66 23.23 26.73 24.44C27.12 25.17 27.2 25.45 26.97 25.29C26.73 25.12 26.65 25.32 26.73 25.88L26.51 27.25C26.24 28.15 26.24 28.78 26.51 29.13C26.78 29.48 26.9 30.09 26.88 30.95C26.63 30.82 26.51 30.98 26.51 31.44C26.51 32.13 27.29 32.13 27.57 32.47C27.85 32.82 27.76 35.13 27.88 36.07C28.01 37 27.7 43.86 27.35 43.3C27.01 42.74 26.29 43.8 26.51 43.8C26.65 43.8 26.78 44.08 26.88 44.64C26.49 45.35 26.22 45.94 26.07 46.39C25.92 46.85 26.05 47.44 26.44 48.14C26.23 48.19 26.09 48.34 26.01 48.61C25.92 48.87 26.07 49.07 26.44 49.21C25.82 50.21 25.61 50.77 25.82 50.89C26.03 51.02 26.23 51.69 26.44 52.89C26.11 53.02 25.97 53.28 26.01 53.68C26.05 54.07 26.37 54.22 26.97 54.12C27.26 62.06 27.08 66.07 26.44 66.15C25.79 66.24 25.52 66.71 25.62 67.59C25.66 68.42 25.56 68.82 25.31 68.78C25.06 68.74 25.01 69.71 25.15 71.71C25.36 72.38 25.41 73.16 25.31 74.06C25.15 75.4 25.12 74.87 25.62 76.37C26.12 77.87 27.81 76.84 28.34 77.09C28.87 77.34 32 77.25 32.84 77.09C33.69 76.93 34.03 77.15 34.84 77.2C35.38 77.24 35.84 76.88 36.22 76.12C40.68 75.74 43.06 75.86 43.35 76.48C43.79 77.42 44.1 76.8 45.57 77.2C47.04 77.61 47.97 76.86 49.35 77.2C50.27 77.43 51.38 77.43 52.69 77.2C53.67 77.7 54.24 77.78 54.38 77.42C54.53 77.07 54.83 76.75 55.29 76.48C60.25 76.34 62.69 76.43 62.63 76.76C62.54 77.26 63.76 77.95 63.85 77.58C63.91 77.33 64.3 77.2 65.01 77.2C66.8 77.79 68.14 77.96 69.04 77.73C70.38 77.39 70.82 77.8 72.16 77.58C73.06 77.43 73.59 76.8 73.76 75.67C73.59 75.34 73.59 75.1 73.76 74.95C73.92 74.81 73.95 74.31 73.85 73.45C73.97 72.49 74.02 71.87 73.97 71.58C73.93 71.29 73.86 70.94 73.76 70.55C73.8 69.9 73.66 69.43 73.35 69.14C73.04 68.85 72.93 68.47 73.03 68.01C73.47 67.35 73.51 66.94 73.15 66.8C72.79 66.65 72.5 66.34 72.28 65.86C72.12 64.73 71.98 63.43 71.87 61.95C71.7 59.73 71.9 56.26 71.87 55.89C71.84 55.51 71.96 55.14 72.49 54.86C72.85 54.67 72.97 54.38 72.87 53.98C72.68 53.73 72.65 53.44 72.78 53.11C72.96 52.61 73.15 51.82 73.24 51.2C73.34 50.57 73.15 50.45 73.03 50.07C72.9 49.7 72.84 48.98 73.03 48.61C73.21 48.23 72.99 47.36 73.15 46.76C73.31 46.17 72.68 45.42 72.49 45.11C72.31 44.79 72.81 44.54 72.87 44.29C72.91 44.13 72.76 43.92 72.4 43.67C71.98 41.86 71.73 40.43 71.65 39.39C71.53 37.82 71.81 34.39 71.87 33.67C71.93 32.95 72.49 32.39 72.68 31.92C72.81 31.61 72.74 31.28 72.49 30.95C72.27 30.53 72.33 30.13 72.68 29.73C73.21 29.14 72.93 28.79 73.03 28.39C73.12 27.98 72.74 27.95 72.87 27.57C72.95 27.32 72.95 26.81 72.87 26.04C72.72 25.44 72.66 24.97 72.68 24.64C72.7 24.3 72.73 23.97 72.78 23.64L72.28 22.79L70.84 22.19Z" id="e41b0jDzx"></path><path d="M34.53 67.69L64.53 68.27L64.12 31.52L35.62 31.52L34.53 67.69Z" id="e4qXvCze9"></path></defs><g><g><g><g><filter id="shadow3250097" x="9.07" y="5.97" width="81.92" height="88.86" filterUnits="userSpaceOnUse" primitiveUnits="userSpaceOnUse"><feFlood></feFlood><feComposite in2="SourceAlpha" operator="in"></feComposite><feGaussianBlur stdDeviation="2"></feGaussianBlur><feOffset dx="1" dy="1" result="afterOffset"></feOffset><feFlood flood-color="#000000" flood-opacity="0.5"></feFlood><feComposite in2="afterOffset" operator="in"></feComposite><feMorphology operator="dilate" radius="2"></feMorphology><feComposite in2="SourceAlpha" operator="out"></feComposite></filter><path d="M70.84 22.19C70.23 22.54 69.78 22.63 69.46 22.44C69.15 22.26 68.1 22.1 66.31 21.97C65.39 22.03 64.84 22.14 64.65 22.31C64.37 22.56 63.34 22.37 62.96 22.09C62.71 21.91 62.4 22.29 62.03 23.25L60.65 23.53C58.9 23.63 57.75 23.7 57.21 23.72C56.67 23.74 55.92 23.58 54.96 23.25C54.61 22.81 54.27 22.54 53.93 22.44C53.6 22.34 53.4 22.37 53.34 22.53C53.07 22.55 52.71 22.48 52.28 22.31C51.84 22.14 51.32 22.19 50.71 22.44L49.68 22.31L48.34 22.44C48 22.38 47.69 22.29 47.4 22.19C47.11 22.09 46.53 22.29 45.65 22.79C45.09 22.83 44.69 22.83 44.46 22.79C44.23 22.76 43.83 23.04 43.24 23.64C41.47 23.79 39.98 23.79 38.78 23.64C37.57 23.48 36.71 23.11 36.22 22.53L34.54 22.44C33.73 22.15 32.94 22.07 32.19 22.19C31.07 22.38 31.26 22.25 28.94 22.44C27.4 22.57 26.66 23.23 26.73 24.44C27.12 25.17 27.2 25.45 26.97 25.29C26.73 25.12 26.65 25.32 26.73 25.88L26.51 27.25C26.24 28.15 26.24 28.78 26.51 29.13C26.78 29.48 26.9 30.09 26.88 30.95C26.63 30.82 26.51 30.98 26.51 31.44C26.51 32.13 27.29 32.13 27.57 32.47C27.85 32.82 27.76 35.13 27.88 36.07C28.01 37 27.7 43.86 27.35 43.3C27.01 42.74 26.29 43.8 26.51 43.8C26.65 43.8 26.78 44.08 26.88 44.64C26.49 45.35 26.22 45.94 26.07 46.39C25.92 46.85 26.05 47.44 26.44 48.14C26.23 48.19 26.09 48.34 26.01 48.61C25.92 48.87 26.07 49.07 26.44 49.21C25.82 50.21 25.61 50.77 25.82 50.89C26.03 51.02 26.23 51.69 26.44 52.89C26.11 53.02 25.97 53.28 26.01 53.68C26.05 54.07 26.37 54.22 26.97 54.12C27.26 62.06 27.08 66.07 26.44 66.15C25.79 66.24 25.52 66.71 25.62 67.59C25.66 68.42 25.56 68.82 25.31 68.78C25.06 68.74 25.01 69.71 25.15 71.71C25.36 72.38 25.41 73.16 25.31 74.06C25.15 75.4 25.12 74.87 25.62 76.37C26.12 77.87 27.81 76.84 28.34 77.09C28.87 77.34 32 77.25 32.84 77.09C33.69 76.93 34.03 77.15 34.84 77.2C35.38 77.24 35.84 76.88 36.22 76.12C40.68 75.74 43.06 75.86 43.35 76.48C43.79 77.42 44.1 76.8 45.57 77.2C47.04 77.61 47.97 76.86 49.35 77.2C50.27 77.43 51.38 77.43 52.69 77.2C53.67 77.7 54.24 77.78 54.38 77.42C54.53 77.07 54.83 76.75 55.29 76.48C60.25 76.34 62.69 76.43 62.63 76.76C62.54 77.26 63.76 77.95 63.85 77.58C63.91 77.33 64.3 77.2 65.01 77.2C66.8 77.79 68.14 77.96 69.04 77.73C70.38 77.39 70.82 77.8 72.16 77.58C73.06 77.43 73.59 76.8 73.76 75.67C73.59 75.34 73.59 75.1 73.76 74.95C73.92 74.81 73.95 74.31 73.85 73.45C73.97 72.49 74.02 71.87 73.97 71.58C73.93 71.29 73.86 70.94 73.76 70.55C73.8 69.9 73.66 69.43 73.35 69.14C73.04 68.85 72.93 68.47 73.03 68.01C73.47 67.35 73.51 66.94 73.15 66.8C72.79 66.65 72.5 66.34 72.28 65.86C72.12 64.73 71.98 63.43 71.87 61.95C71.7 59.73 71.9 56.26 71.87 55.89C71.84 55.51 71.96 55.14 72.49 54.86C72.85 54.67 72.97 54.38 72.87 53.98C72.68 53.73 72.65 53.44 72.78 53.11C72.96 52.61 73.15 51.82 73.24 51.2C73.34 50.57 73.15 50.45 73.03 50.07C72.9 49.7 72.84 48.98 73.03 48.61C73.21 48.23 72.99 47.36 73.15 46.76C73.31 46.17 72.68 45.42 72.49 45.11C72.31 44.79 72.81 44.54 72.87 44.29C72.91 44.13 72.76 43.92 72.4 43.67C71.98 41.86 71.73 40.43 71.65 39.39C71.53 37.82 71.81 34.39 71.87 33.67C71.93 32.95 72.49 32.39 72.68 31.92C72.81 31.61 72.74 31.28 72.49 30.95C72.27 30.53 72.33 30.13 72.68 29.73C73.21 29.14 72.93 28.79 73.03 28.39C73.12 27.98 72.74 27.95 72.87 27.57C72.95 27.32 72.95 26.81 72.87 26.04C72.72 25.44 72.66 24.97 72.68 24.64C72.7 24.3 72.73 23.97 72.78 23.64L72.28 22.79L70.84 22.19Z" id="anRDNC1EN" fill="white" fill-opacity="1" filter="url(#shadow3250097)"></path></g><use xlink:href="#e41b0jDzx" opacity="1" fill="#eeeeee" fill-opacity="1"></use></g><g><use xlink:href="#e4qXvCze9" opacity="1" fill="#29292b" fill-opacity="1"></use><g><filter id="shadow255677" x="18.53" y="15.52" width="63" height="69.75" filterUnits="userSpaceOnUse" primitiveUnits="userSpaceOnUse"><feFlood></feFlood><feComposite in2="SourceAlpha" operator="out"></feComposite><feGaussianBlur stdDeviation="2"></feGaussianBlur><feOffset dx="1" dy="1" result="afterOffset"></feOffset><feFlood flood-color="#000000" flood-opacity="0.8"></feFlood><feComposite in2="afterOffset" operator="in"></feComposite><feMorphology operator="dilate" radius="2"></feMorphology><feComposite in2="SourceAlpha" operator="in"></feComposite></filter><path d="M34.53 67.69L64.53 68.27L64.12 31.52L35.62 31.52L34.53 67.69Z" id="gfXYVO2Sb" fill="white" fill-opacity="1" filter="url(#shadow255677)"></path></g></g></g></g></svg>