<?xml version="1.0" encoding="UTF-8" standalone="no"?>
<!DOCTYPE svg PUBLIC "-//W3C//DTD SVG 1.1//EN" "http://www.w3.org/Graphics/SVG/1.1/DTD/svg11.dtd">
<svg version="1.1" xmlns="http://www.w3.org/2000/svg" xmlns:xlink="http://www.w3.org/1999/xlink" preserveAspectRatio="xMidYMid meet" viewBox="0 0 100 100" width="100" height="100"><defs><path d="M25.75 63.56C26.62 63.63 31.06 66.81 31.62 66.94C32 67.02 32.91 65.9 34.36 63.56C34.14 64.47 34 65.04 33.94 65.27C33.77 65.95 33.71 66.65 33.76 67.36C33.83 68.19 34.03 68.65 34.36 68.72C34.95 68.84 43.1 73.48 58.81 82.63L61.75 77.75C62.58 75.92 63.25 74.79 63.75 74.38C64.25 73.96 64.83 72.69 65.5 70.56C66.71 68.69 67.33 67.48 67.37 66.94C67.41 66.4 67.73 66.02 68.31 65.81C66.34 65.5 65.66 65.22 66.29 64.97C66.91 64.72 68.48 63 71 59.81C72.54 56.81 73.64 55.04 74.31 54.5C75.31 53.69 75.87 51.63 76.19 51.06C76.39 50.69 76.52 47.69 76.56 42.06C76.52 37.15 76.52 34.46 76.56 34C76.6 33.54 76.37 33.13 75.87 32.75L65.12 27L48 17.38C46.94 19.3 46.19 20.49 45.73 20.95C45.04 21.64 44.78 22.94 44.46 23.69C44.25 24.19 40.89 30.06 34.36 41.29L36.88 41.72L33.69 42.73L26.69 56.13L23.44 62.56C24.39 63.19 25.16 63.52 25.75 63.56Z" id="asqPkE11f"></path><path d="M76.44 34.25C76.35 34.79 76.12 35.08 75.75 35.13L75.5 36.5C75.54 35.58 75.35 35.35 74.94 35.81C74.52 36.27 73.85 36.5 72.94 36.5L71.75 36.19C71.96 37.02 72.46 38.04 73.25 39.25C74.04 40.46 75.1 43.5 76.44 48.38C76.52 38.42 76.52 33.71 76.44 34.25Z" id="a1a3BgyT93"></path></defs><g><g><g><g><filter id="shadow16342294" x="13.44" y="7.38" width="75.13" height="87.25" filterUnits="userSpaceOnUse" primitiveUnits="userSpaceOnUse"><feFlood></feFlood><feComposite in2="SourceAlpha" operator="in"></feComposite><feGaussianBlur stdDeviation="1"></feGaussianBlur><feOffset dx="2" dy="2" result="afterOffset"></feOffset><feFlood flood-color="#000000" flood-opacity="0.5"></feFlood><feComposite in2="afterOffset" operator="in"></feComposite><feMorphology operator="dilate" radius="1"></feMorphology><feComposite in2="SourceAlpha" operator="out"></feComposite></filter><path d="M25.75 63.56C26.62 63.63 31.06 66.81 31.62 66.94C32 67.02 32.91 65.9 34.36 63.56C34.14 64.47 34 65.04 33.94 65.27C33.77 65.95 33.71 66.65 33.76 67.36C33.83 68.19 34.03 68.65 34.36 68.72C34.95 68.84 43.1 73.48 58.81 82.63L61.75 77.75C62.58 75.92 63.25 74.79 63.75 74.38C64.25 73.96 64.83 72.69 65.5 70.56C66.71 68.69 67.33 67.48 67.37 66.94C67.41 66.4 67.73 66.02 68.31 65.81C66.34 65.5 65.66 65.22 66.29 64.97C66.91 64.72 68.48 63 71 59.81C72.54 56.81 73.64 55.04 74.31 54.5C75.31 53.69 75.87 51.63 76.19 51.06C76.39 50.69 76.52 47.69 76.56 42.06C76.52 37.15 76.52 34.46 76.56 34C76.6 33.54 76.37 33.13 75.87 32.75L65.12 27L48 17.38C46.94 19.3 46.19 20.49 45.73 20.95C45.04 21.64 44.78 22.94 44.46 23.69C44.25 24.19 40.89 30.06 34.36 41.29L36.88 41.72L33.69 42.73L26.69 56.13L23.44 62.56C24.39 63.19 25.16 63.52 25.75 63.56Z" id="c57gm96O" fill="white" fill-opacity="1" filter="url(#shadow16342294)"></path></g><use xlink:href="#asqPkE11f" opacity="1" fill="#eeeeee" fill-opacity="1"></use><g><filter id="shadow3629511" x="6.44" y="0.38" width="88.13" height="100.25" filterUnits="userSpaceOnUse" primitiveUnits="userSpaceOnUse"><feFlood></feFlood><feComposite in2="SourceAlpha" operator="out"></feComposite><feGaussianBlur stdDeviation="2"></feGaussianBlur><feOffset dx="1" dy="1" result="afterOffset"></feOffset><feFlood flood-color="#9f9f9f" flood-opacity="0.8"></feFlood><feComposite in2="afterOffset" operator="in"></feComposite><feMorphology operator="dilate" radius="3"></feMorphology><feComposite in2="SourceAlpha" operator="in"></feComposite></filter><path d="M25.75 63.56C26.62 63.63 31.06 66.81 31.62 66.94C32 67.02 32.91 65.9 34.36 63.56C34.14 64.47 34 65.04 33.94 65.27C33.77 65.95 33.71 66.65 33.76 67.36C33.83 68.19 34.03 68.65 34.36 68.72C34.95 68.84 43.1 73.48 58.81 82.63L61.75 77.75C62.58 75.92 63.25 74.79 63.75 74.38C64.25 73.96 64.83 72.69 65.5 70.56C66.71 68.69 67.33 67.48 67.37 66.94C67.41 66.4 67.73 66.02 68.31 65.81C66.34 65.5 65.66 65.22 66.29 64.97C66.91 64.72 68.48 63 71 59.81C72.54 56.81 73.64 55.04 74.31 54.5C75.31 53.69 75.87 51.63 76.19 51.06C76.39 50.69 76.52 47.69 76.56 42.06C76.52 37.15 76.52 34.46 76.56 34C76.6 33.54 76.37 33.13 75.87 32.75L65.12 27L48 17.38C46.94 19.3 46.19 20.49 45.73 20.95C45.04 21.64 44.78 22.94 44.46 23.69C44.25 24.19 40.89 30.06 34.36 41.29L36.88 41.72L33.69 42.73L26.69 56.13L23.44 62.56C24.39 63.19 25.16 63.52 25.75 63.56Z" id="cfNbBExkV" fill="white" fill-opacity="1" filter="url(#shadow3629511)"></path></g></g><g><use xlink:href="#a1a3BgyT93" opacity="1" fill="#eeeeee" fill-opacity="1"></use></g></g></g></svg>